<svg width="26" height="26" viewBox="0 0 26 26" fill="none" xmlns="http://www.w3.org/2000/svg">
    <path
        d="M22.9286 5.78447L20.4313 3.28721L20.8997 2.81905L20.8997 2.81901C21.3938 2.32495 22.1949 2.32496 22.6889 2.819L22.6889 2.81905L23.3966 3.5264C23.3966 3.52642 23.3966 3.52643 23.3966 3.52644C23.8899 4.02122 23.8899 4.82177 23.3968 5.31635L22.9286 5.78447ZM22.9286 5.78447L23.3966 5.31657L22.9286 5.78447ZM4.01534 3.10423L4.01507 3.10423C2.21682 3.10625 0.759625 4.56344 0.757605 6.36169V6.36196L0.757605 22.0776L0.757605 22.0778C0.759625 23.876 2.21682 25.3332 4.01506 25.3353H4.01534H20.9368H20.9371C22.7353 25.3332 24.1925 23.876 24.1946 22.0778V22.0776V16.7227C24.1946 16.2557 23.816 15.8773 23.3491 15.8773C22.8821 15.8773 22.5036 16.2557 22.5036 16.7227V22.077C22.5026 22.9422 21.8017 23.6433 20.9366 23.6441H4.01557C3.15049 23.6433 2.44963 22.9423 2.44853 22.0771C2.44853 22.0771 2.44853 22.0771 2.44853 22.077V6.36226C2.44853 6.36222 2.44853 6.36219 2.44853 6.36216C2.44963 5.49727 3.15042 4.7963 4.01544 4.79515C4.01551 4.79515 4.01557 4.79515 4.01563 4.79515L9.36998 4.79515C9.83693 4.79515 10.2154 4.41664 10.2154 3.94969C10.2154 3.48297 9.83697 3.10423 9.36998 3.10423L4.01534 3.10423ZM23.8847 1.62349L23.8847 1.62347C22.7302 0.468985 20.8584 0.468978 19.704 1.62348L8.94476 12.3826C8.94476 12.3826 8.94476 12.3826 8.94476 12.3826C8.8415 12.4859 8.76676 12.6141 8.7278 12.7548L7.31299 17.8626C7.31298 17.8627 7.31296 17.8627 7.31295 17.8628C7.27295 18.0069 7.27193 18.1591 7.30998 18.3038C7.34805 18.4485 7.42386 18.5806 7.52966 18.6864C7.63546 18.7922 7.76746 18.8681 7.91218 18.9062C8.05689 18.9443 8.20913 18.9433 8.35334 18.9033L13.4612 17.4883C13.6019 17.4493 13.7302 17.3745 13.8334 17.2713L24.5923 6.51196L24.5925 6.51176C25.7451 5.35653 25.7451 3.48654 24.5925 2.33137L24.5923 2.33119L23.8847 1.62349ZM13.2699 15.4431L10.773 12.946L19.2358 4.48307L21.7328 6.98011L13.2699 15.4431ZM9.34134 16.8749L9.98552 14.5497L11.6663 16.2308L9.34134 16.8749Z"
        fill="#565656" stroke="#565656" stroke-width="0.48479" />
</svg>