<svg xmlns="http://www.w3.org/2000/svg" version="1.1" xmlns:xlink="http://www.w3.org/1999/xlink" width="512"
    height="512" x="0" y="0" viewBox="0 0 24 24" style="enable-background:new 0 0 512 512" xml:space="preserve"
    fill-rule="evenodd" class="">
    <g>
        <path
            d="M13 2.25H7A4.75 4.75 0 0 0 2.25 7v10A4.75 4.75 0 0 0 7 21.75h10A4.75 4.75 0 0 0 21.75 17v-6a.75.75 0 0 0-1.5 0v6A3.247 3.247 0 0 1 17 20.25H7A3.247 3.247 0 0 1 3.75 17V7A3.247 3.247 0 0 1 7 3.75h6a.75.75 0 0 0 0-1.5z"
            fill="#1B8D52" opacity="1" data-original="#1B8D52" class=""></path>
        <path
            d="m21.469 15.414-3.518-2.813a2.749 2.749 0 0 0-3.773.32 77448.59 77448.59 0 0 0-6.739 7.581.75.75 0 1 0 1.122.996l6.738-7.581a1.25 1.25 0 0 1 1.715-.145l3.517 2.814a.752.752 0 0 0 1.055-.117.752.752 0 0 0-.117-1.055z"
            fill="#1B8D52" opacity="1" data-original="#1B8D52" class=""></path>
        <path
            d="m13.005 14.445-4.277-3.888a2.75 2.75 0 0 0-3.5-.165L2.55 12.4a.75.75 0 0 0 .9 1.2l2.678-2.008a1.25 1.25 0 0 1 1.591.075l4.276 3.888a.752.752 0 0 0 1.01-1.11zM21.25 6V5a3.75 3.75 0 0 0-3.75-3.75.75.75 0 0 0 0 1.5A2.25 2.25 0 0 1 19.75 5v1a.75.75 0 0 0 1.5 0zM14.75 5v1a3.75 3.75 0 0 0 3.75 3.75.75.75 0 0 0 0-1.5A2.25 2.25 0 0 1 16.25 6V5a.75.75 0 0 0-1.5 0z"
            fill="#1B8D52" opacity="1" data-original="#1B8D52" class=""></path>
        <path
            d="m18.47 5.53 1.5 1.5a.749.749 0 0 0 1.06 0l1.5-1.5a.749.749 0 1 0-1.06-1.06l-.97.969-.97-.969a.749.749 0 1 0-1.06 1.06zM17.53 5.47l-1.5-1.5a.749.749 0 0 0-1.06 0l-1.5 1.5a.749.749 0 1 0 1.06 1.06l.97-.969.97.969a.749.749 0 1 0 1.06-1.06z"
            fill="#1B8D52" opacity="1" data-original="#1B8D52" class=""></path>
        <circle cx="9.5" cy="6.5" r="1.5" fill="#1B8D52" opacity="1" data-original="#1B8D52" class=""></circle>
    </g>
</svg>